<?xml version="1.0" encoding="utf-8"?>
<!-- Generator: Adobe Illustrator 13.0.0, SVG Export Plug-In . SVG Version: 6.00 Build 14948)  -->
<!DOCTYPE svg PUBLIC "-//W3C//DTD SVG 1.0//EN" "http://www.w3.org/TR/2001/REC-SVG-20010904/DTD/svg10.dtd">
<svg version="1.0" id="Layer_1" xmlns="http://www.w3.org/2000/svg" xmlns:xlink="http://www.w3.org/1999/xlink" x="0px" y="0px"
	 width="100px" height="100px" viewBox="0 0 100 100" enable-background="new 0 0 100 100" xml:space="preserve">
<g>
	<g>
		<path fill="#5AC6D9" d="M88.71,28.313H57.348l2.362-0.986l16.998-7.121c0.768-0.294,1.282-1.02,1.311-1.838
			c0.023-0.811-0.421-1.553-1.147-1.903L57.354,7.071c-1.014-0.491-2.238-0.066-2.731,0.95c-0.043,0.09-0.079,0.185-0.108,0.28
			l-5.156,16.366L33.524,2.612c-0.407-0.573-1.078-0.898-1.783-0.856c-0.703,0.042-1.34,0.442-1.673,1.063l-8.31,15.222
			c-0.539,0.99-0.168,2.234,0.825,2.772c0.079,0.044,0.155,0.079,0.241,0.111l16.712,6.485l2.347,0.905H13.63
			c-1.649,0-2.91,1.264-2.91,2.91v20.374c0,1.65,1.261,2.907,2.91,2.907h2.037v39.679c0,1.644,1.262,2.907,2.91,2.907h65.188
			c1.65,0,2.908-1.264,2.908-2.907V54.504h2.037c1.652,0,2.91-1.257,2.91-2.907V31.223C91.62,29.577,90.362,28.313,88.71,28.313z
			 M67.194,80.248c-3.469,0-6.737-1.325-9.19-3.782l-3.05-2.696l3.641-3.229l2.732,2.423c1.651,1.631,3.699,2.469,5.877,2.469
			c4.507,0,8.169-3.646,8.169-8.133c0-4.479-3.662-8.127-8.169-8.127c-2.178,0-4.226,0.846-5.768,2.385L54.943,67.3l0.011,0.016
			l-3.636,3.226l-0.012-0.008l-6.805,6.031c-2.362,2.335-5.626,3.684-9.094,3.684c-7.177,0-13.007-5.804-13.007-12.948
			c0-7.138,5.83-12.941,13.007-12.929c3.481,0,6.745,1.346,9.201,3.79l3.049,2.694l-3.638,3.222l-2.736-2.419
			c-1.648-1.64-3.696-2.485-5.876-2.485c-4.501,0-8.165,3.648-8.165,8.127c0,4.486,3.664,8.133,8.165,8.133
			c2.18,0,4.228-0.838,5.769-2.372l6.489-5.761l-0.022-0.019l3.653-3.221l0.011,0.017l6.805-6.026
			c2.346-2.346,5.625-3.692,9.093-3.692c7.179,0,13.007,5.804,13.007,12.941C80.211,74.444,74.383,80.248,67.194,80.248z"/>
	</g>
</g>
</svg>
